<?xml version="1.0" encoding="utf-8"?>
<!-- Generator: Adobe Illustrator 27.5.0, SVG Export Plug-In . SVG Version: 6.00 Build 0)  -->
<svg version="1.1" xmlns="http://www.w3.org/2000/svg" xmlns:xlink="http://www.w3.org/1999/xlink" x="0px" y="0px"
	 viewBox="0 0 500 500" style="enable-background:new 0 0 500 500;" xml:space="preserve">
<g id="BACKGROUND">
	<rect style="fill:#FFFFFF;" width="500" height="500"/>
</g>
<g id="OBJECTS">
	<g>
		<g>
			<path style="fill:#FABF4A;" d="M99.04,324.09c-0.58,6.83-2.38,14.67-4.56,21.23c-0.06,0.16-0.11,0.31-0.16,0.47
				c-0.26-0.49-0.55-0.95-0.86-1.39c-4.7-6.59-14.7-8.27-19.73-14.86c-2.94-3.85-3.8-8.92-3.63-13.76
				c0.17-4.83,1.26-9.59,1.81-14.39c0.52-4.54,0.19-8.02-1.15-13.3c-0.08-0.32-0.16-0.65-0.25-0.98c0.53,0.42,1.06,0.82,1.61,1.22
				c0.01,0.01,0.01,0.01,0.01,0.01c3.39,2.45,7.04,4.48,10.69,6.59c4.23,2.45,8.39,5.25,11.33,9.16
				C98.36,309.7,99.62,317.1,99.04,324.09z"/>
			<path style="fill:#EF8A2E;" d="M94.48,345.32c-0.06,0.16-0.11,0.31-0.16,0.47c-0.26-0.49-0.55-0.95-0.86-1.39
				c-0.09-2.8-0.36-5.59-0.81-8.36c-1.5-9.29-4.81-18.19-9.05-26.56c-3.76-7.43-8.22-14.48-12.84-21.39
				c-0.08-0.32-0.16-0.65-0.25-0.98c0.53,0.42,1.06,0.82,1.61,1.22c0.01,0.01,0.01,0.01,0.01,0.01c2.22,3.33,4.39,6.69,6.46,10.12
				c4.88,8.06,9.22,16.51,12.13,25.49C92.96,330.85,94.36,338.07,94.48,345.32z"/>
		</g>
		<g>
			<path style="fill:#EF8A2E;" d="M92,346.34c-0.12-0.04-0.24-0.07-0.37-0.1c-8.82-2.4-18.34,1.99-27.37,0.33
				c-5.93-1.08-11.3-4.89-14.3-10.12c-2.71-4.73-3.49-10.37-6.06-15.16c-0.17-0.31-0.34-0.61-0.52-0.91
				c0.59,0.22,1.18,0.42,1.78,0.6c8.72,2.65,18.28,1.39,26.98,4.28c8.76,2.91,16.64,10.71,19.44,19.56
				C91.73,345.33,91.88,345.83,92,346.34z"/>
			<path style="fill:#FABF4A;" d="M92,346.34c-0.12-0.04-0.24-0.07-0.37-0.1c-1.98-2-4.3-3.67-6.74-5.09
				c-7.06-4.08-15.11-5.97-22.57-9.17c-6.55-2.81-12.73-6.41-18.42-10.69c-0.17-0.31-0.34-0.61-0.52-0.91
				c0.59,0.22,1.18,0.42,1.78,0.6c2.82,2.09,5.76,4.01,8.81,5.74c3.54,2.01,7.22,3.78,11,5.28c3.94,1.56,7.97,2.84,11.92,4.35
				c5.28,2.03,10.55,4.6,14.69,8.47C91.73,345.33,91.88,345.83,92,346.34z"/>
		</g>
	</g>
	<g>
		<g>
			<path style="fill:#EF8A2E;" d="M428.289,334.395c1.705,1.724,2.558,4.441,2.145,6.839c-0.422,2.389-2.042,4.544-4.235,5.593
				c0.6,9.022-2.707,17.913-9.181,24.19c-0.206,0.197-0.412,0.393-0.628,0.59c-0.103-0.215-0.206-0.431-0.3-0.646
				c-3.345-7.383-3.841-16.03-1.34-23.75c-2.23-1.255-3.42-3.532-3.832-6.061c-0.403-2.53,0.393-5.218,2.117-7.12
				c-1.321-1.087-1.715-2.932-1.743-4.647c-0.037-1.705,0.712-3.42,1.986-4.563c-0.862-3.485,0.553-7.251,3.56-9.2
				c1.499-0.965,3.298-1.405,5.078-1.321c0.309,0,0.618,0.028,0.928,0.084c1.471,0.206,2.885,0.778,4.057,1.696
				c2.82,2.202,4.029,6.268,2.858,9.659c1.302,1.068,1.705,3.176,1.471,4.844C430.987,332.24,429.835,333.739,428.289,334.395z"/>
			<path style="fill:#FABF4A;" d="M422.846,314.383c-0.281,4.038-0.6,8.066-0.937,12.104c-0.759,8.984-1.658,17.96-2.689,26.926
				c-0.675,5.874-1.405,11.748-2.202,17.604c-0.206,0.197-0.412,0.393-0.628,0.59c-0.103-0.215-0.206-0.431-0.3-0.646
				c0.281-2.08,0.562-4.169,0.824-6.249c1.124-8.872,2.127-17.763,2.998-26.663c0.778-7.907,1.452-15.824,2.005-23.75
				C422.228,314.299,422.537,314.327,422.846,314.383z"/>
		</g>
		<g>
			<path style="fill:#FABF4A;" d="M466.105,345.858c-1.013,2.518-3.283,4.58-5.968,5c0.17,2.426-0.756,4.882-2.54,6.544
				c-1.782,1.654-4.327,2.454-6.734,2.107c0.036,3.438-1.614,6.85-4.348,8.942c-2.723,2.085-6.462,2.792-9.763,1.844
				c0.744,2.788-1.64,5.344-3.893,7.136c-4.922,3.917-12.224,4.374-18.524,4.177c-0.054-0.003-0.099-0.005-0.154-0.008
				c-0.048-0.304-0.086-0.614-0.115-0.923c-0.711-7.078,3.401-14.447,9.862-17.467c-1.333-2.577-0.989-5.56,0.242-8.192
				c1.229-2.623,3.725-4.633,6.567-5.255c-0.967-5.061,2.582-10.357,7.561-11.681c1.846-5.8,7.724-9.934,13.805-10.016
				c3.383-0.039,6.703,1.223,9.331,3.341c0.232,0.182,0.462,0.372,0.68,0.578c1.785,1.611,3.183,3.627,3.973,5.904
				C466.973,340.454,467.119,343.34,466.105,345.858z"/>
			<path style="fill:#EF8A2E;" d="M462.113,331.985c-2.162,1.794-4.247,3.689-6.264,5.645c-7.506,7.296-14.111,15.441-20.945,23.349
				c-6.349,7.354-12.957,14.565-20.571,20.629c-0.054-0.003-0.099-0.005-0.154-0.008c-0.048-0.304-0.086-0.614-0.115-0.923
				c3.962-3.17,7.653-6.667,11.17-10.324c7.272-7.551,13.805-15.777,20.759-23.612c4.813-5.423,9.863-10.682,15.439-15.334
				C461.666,331.589,461.896,331.779,462.113,331.985z"/>
		</g>
	</g>
	<g>
		<g>
			<path style="fill:#FFE6B3;" d="M387.935,404.126h-47.473l14.123-271.043h19.228l0.024,0.474L387.935,404.126z M341.516,403.126
				h45.367l-14.018-269.043h-17.329L341.516,403.126z"/>
			<g>
				
					<rect x="364.121" y="129.772" transform="matrix(0.7258 -0.6879 0.6879 0.7258 1.1535 290.2336)" style="fill:#FFE6B3;" width="1" height="27.796"/>
				
					<rect x="349.675" y="143.17" transform="matrix(0.6888 -0.7249 0.7249 0.6888 8.9887 308.2799)" style="fill:#FFE6B3;" width="27.812" height="1"/>
			</g>
			<g>
				
					<rect x="364.241" y="149.28" transform="matrix(0.763 -0.6464 0.6464 0.763 -20.7491 275.0867)" style="fill:#FFE6B3;" width="1.001" height="33.115"/>
				
					<rect x="346.872" y="165.338" transform="matrix(0.6471 -0.7624 0.7624 0.6471 1.8223 335.6118)" style="fill:#FFE6B3;" width="33.132" height="0.999"/>
			</g>
			<g>
				
					<rect x="364.415" y="173.732" transform="matrix(0.8013 -0.5983 0.5983 0.8013 -43.5838 256.8816)" style="fill:#FFE6B3;" width="1" height="40.639"/>
				
					<rect x="342.906" y="193.551" transform="matrix(0.5987 -0.801 0.801 0.5987 -9.6677 368.8058)" style="fill:#FFE6B3;" width="40.659" height="1"/>
			</g>
			<g>
				
					<rect x="364.678" y="205.266" transform="matrix(0.84 -0.5427 0.5427 0.84 -67.0137 235.1672)" style="fill:#FFE6B3;" width="1" height="51.855"/>
				
					<rect x="336.991" y="230.694" transform="matrix(0.5429 -0.8398 0.8398 0.5429 -28.2648 410.4565)" style="fill:#FFE6B3;" width="51.88" height="1"/>
			</g>
			<g>
				
					<rect x="365.108" y="247.46" transform="matrix(0.8779 -0.4788 0.4788 0.8779 -90.5563 209.5344)" style="fill:#FFE6B3;" width="0.999" height="69.767"/>
				<polygon style="fill:#FFE6B3;" points="346.151,313.208 345.274,312.728 378.746,251.479 379.623,251.959 				"/>
			</g>
			<g>
				
					<rect x="365.873" y="306.787" transform="matrix(0.9137 -0.4064 0.4064 0.9137 -113.6261 179.7455)" style="fill:#FFE6B3;" width="1" height="101.207"/>
				
					<rect x="310.981" y="356.89" transform="matrix(0.4069 -0.9135 0.9135 0.4069 -112.0021 542.2744)" style="fill:#FFE6B3;" width="101.246" height="1"/>
			</g>
		</g>
		<g>
			<rect x="345.098" y="95.381" style="fill:#FFE6B3;" width="38.202" height="38.202"/>
		</g>
		<g>
			<g>
				<rect x="100.153" y="260.359" style="fill:#FFE6B3;" width="98.034" height="12.399"/>
				<path style="fill:#FFE6B3;" d="M149.17,262.63c-0.276,0-0.5-0.224-0.5-0.5V120.502c0-0.276,0.224-0.5,0.5-0.5
					c0.276,0,0.5,0.224,0.5,0.5V262.13C149.67,262.406,149.446,262.63,149.17,262.63z"/>
				<rect x="140.585" y="120.349" style="fill:#FFE6B3;" width="17.171" height="3.67"/>
			</g>
			<g>
				<g>
					<g>
						<g>
							<path style="fill:#FFE6B3;" d="M299.574,120.85c-0.13,0-0.258-0.051-0.353-0.146l-7.167-7.167l-7.167,7.167
								c-0.195,0.195-0.512,0.195-0.707,0c-0.195-0.195-0.195-0.512,0-0.707l7.167-7.167l-7.167-7.167
								c-0.195-0.195-0.195-0.512,0-0.707c0.195-0.195,0.512-0.195,0.707,0l7.167,7.167l7.167-7.167
								c0.144-0.144,0.358-0.186,0.545-0.108c0.186,0.077,0.309,0.26,0.309,0.462v15.041c0,0.202-0.122,0.385-0.309,0.462
								C299.704,120.837,299.639,120.85,299.574,120.85z M292.761,112.83l6.314,6.313v-12.627L292.761,112.83z"/>
						</g>
						<g>
							<path style="fill:#FFE6B3;" d="M269.493,120.85c-0.065,0-0.13-0.012-0.191-0.038c-0.187-0.077-0.309-0.26-0.309-0.462
								v-15.041c0-0.202,0.122-0.385,0.309-0.462c0.186-0.077,0.402-0.035,0.545,0.108l7.166,7.167l7.167-7.167
								c0.195-0.195,0.512-0.195,0.707,0c0.195,0.195,0.195,0.512,0,0.707l-7.166,7.167l7.166,7.167
								c0.195,0.195,0.195,0.512,0,0.707c-0.195,0.195-0.512,0.195-0.707,0l-7.167-7.167l-7.166,7.167
								C269.751,120.799,269.623,120.85,269.493,120.85z M269.993,106.516v12.627l6.313-6.313L269.993,106.516z"/>
						</g>
					</g>
					<path style="fill:#FFE6B3;" d="M299.574,105.809h-30.081c-0.276,0-0.5-0.224-0.5-0.5c0-0.276,0.224-0.5,0.5-0.5h30.081
						c0.276,0,0.5,0.224,0.5,0.5C300.074,105.585,299.851,105.809,299.574,105.809z"/>
					<path style="fill:#FFE6B3;" d="M299.574,120.85h-30.081c-0.276,0-0.5-0.224-0.5-0.5c0-0.276,0.224-0.5,0.5-0.5h30.081
						c0.276,0,0.5,0.224,0.5,0.5C300.074,120.626,299.851,120.85,299.574,120.85z"/>
				</g>
				<g>
					<g>
						<g>
							<path style="fill:#FFE6B3;" d="M329.654,120.85c-0.13,0-0.258-0.051-0.354-0.146l-7.167-7.167l-7.166,7.167
								c-0.195,0.195-0.512,0.195-0.707,0c-0.195-0.195-0.195-0.512,0-0.707l7.166-7.167l-7.166-7.167
								c-0.195-0.195-0.195-0.512,0-0.707c0.195-0.195,0.512-0.195,0.707,0l7.166,7.167l7.167-7.167
								c0.143-0.144,0.359-0.186,0.545-0.108c0.186,0.077,0.309,0.26,0.309,0.462v15.041c0,0.202-0.122,0.385-0.309,0.462
								C329.784,120.837,329.719,120.85,329.654,120.85z M322.842,112.83l6.313,6.313v-12.627L322.842,112.83z"/>
						</g>
						<g>
							<path style="fill:#FFE6B3;" d="M299.574,120.85c-0.064,0-0.13-0.012-0.191-0.038c-0.186-0.077-0.309-0.26-0.309-0.462
								v-15.041c0-0.202,0.122-0.385,0.309-0.462c0.186-0.077,0.402-0.035,0.545,0.108l7.167,7.167l7.166-7.167
								c0.195-0.195,0.512-0.195,0.707,0c0.195,0.195,0.195,0.512,0,0.707l-7.166,7.167l7.166,7.167
								c0.195,0.195,0.195,0.512,0,0.707c-0.195,0.195-0.512,0.195-0.707,0l-7.166-7.167l-7.167,7.167
								C299.832,120.799,299.704,120.85,299.574,120.85z M300.074,106.516v12.627l6.313-6.313L300.074,106.516z"/>
						</g>
					</g>
					<path style="fill:#FFE6B3;" d="M329.654,105.809h-30.08c-0.276,0-0.5-0.224-0.5-0.5c0-0.276,0.224-0.5,0.5-0.5h30.08
						c0.276,0,0.5,0.224,0.5,0.5C330.154,105.585,329.931,105.809,329.654,105.809z"/>
					<path style="fill:#FFE6B3;" d="M329.654,120.85h-30.08c-0.276,0-0.5-0.224-0.5-0.5c0-0.276,0.224-0.5,0.5-0.5h30.08
						c0.276,0,0.5,0.224,0.5,0.5C330.154,120.626,329.931,120.85,329.654,120.85z"/>
				</g>
				<g>
					<g>
						<g>
							<path style="fill:#FFE6B3;" d="M359.735,120.85c-0.13,0-0.258-0.051-0.354-0.146l-7.166-7.167l-7.167,7.167
								c-0.195,0.195-0.512,0.195-0.707,0c-0.195-0.195-0.195-0.512,0-0.707l7.166-7.167l-7.166-7.167
								c-0.195-0.195-0.195-0.512,0-0.707c0.195-0.195,0.512-0.195,0.707,0l7.167,7.167l7.166-7.167
								c0.144-0.144,0.359-0.186,0.545-0.108c0.186,0.077,0.309,0.26,0.309,0.462v15.041c0,0.202-0.122,0.385-0.309,0.462
								C359.865,120.837,359.8,120.85,359.735,120.85z M352.923,112.83l6.313,6.313v-12.627L352.923,112.83z"/>
						</g>
						<g>
							<path style="fill:#FFE6B3;" d="M329.654,120.85c-0.065,0-0.13-0.012-0.191-0.038c-0.186-0.077-0.309-0.26-0.309-0.462
								v-15.041c0-0.202,0.122-0.385,0.309-0.462c0.186-0.077,0.401-0.035,0.545,0.108l7.167,7.167l7.167-7.167
								c0.195-0.195,0.512-0.195,0.707,0c0.195,0.195,0.195,0.512,0,0.707l-7.167,7.167l7.167,7.167
								c0.195,0.195,0.195,0.512,0,0.707c-0.195,0.195-0.512,0.195-0.707,0l-7.167-7.167l-7.167,7.167
								C329.912,120.799,329.784,120.85,329.654,120.85z M330.154,106.516v12.627l6.314-6.313L330.154,106.516z"/>
						</g>
					</g>
					<path style="fill:#FFE6B3;" d="M359.735,105.809h-30.081c-0.276,0-0.5-0.224-0.5-0.5c0-0.276,0.224-0.5,0.5-0.5h30.081
						c0.276,0,0.5,0.224,0.5,0.5C360.235,105.585,360.012,105.809,359.735,105.809z"/>
					<path style="fill:#FFE6B3;" d="M359.735,120.85h-30.081c-0.276,0-0.5-0.224-0.5-0.5c0-0.276,0.224-0.5,0.5-0.5h30.081
						c0.276,0,0.5,0.224,0.5,0.5C360.235,120.626,360.012,120.85,359.735,120.85z"/>
				</g>
				<g>
					<g>
						<g>
							<path style="fill:#FFE6B3;" d="M269.493,120.85c-0.13,0-0.258-0.051-0.354-0.146l-7.166-7.167l-7.167,7.167
								c-0.195,0.195-0.512,0.195-0.707,0c-0.195-0.195-0.195-0.512,0-0.707l7.166-7.167l-7.166-7.167
								c-0.195-0.195-0.195-0.512,0-0.707c0.195-0.195,0.512-0.195,0.707,0l7.167,7.167l7.166-7.167
								c0.144-0.144,0.359-0.186,0.545-0.108c0.186,0.077,0.309,0.26,0.309,0.462v15.041c0,0.202-0.122,0.385-0.309,0.462
								C269.623,120.837,269.558,120.85,269.493,120.85z M262.681,112.83l6.313,6.313v-12.627L262.681,112.83z"/>
						</g>
						<g>
							<path style="fill:#FFE6B3;" d="M239.412,120.85c-0.064,0-0.129-0.012-0.191-0.038c-0.187-0.077-0.309-0.26-0.309-0.462
								v-15.041c0-0.202,0.122-0.385,0.309-0.462c0.188-0.077,0.402-0.035,0.545,0.108l7.167,7.167l7.167-7.167
								c0.195-0.195,0.512-0.195,0.707,0c0.195,0.195,0.195,0.512,0,0.707l-7.167,7.167l7.167,7.167
								c0.195,0.195,0.195,0.512,0,0.707c-0.195,0.195-0.512,0.195-0.707,0l-7.167-7.167l-7.167,7.167
								C239.67,120.799,239.542,120.85,239.412,120.85z M239.912,106.516v12.627l6.313-6.313L239.912,106.516z"/>
						</g>
					</g>
					<path style="fill:#FFE6B3;" d="M269.493,105.809h-30.081c-0.276,0-0.5-0.224-0.5-0.5c0-0.276,0.224-0.5,0.5-0.5h30.081
						c0.276,0,0.5,0.224,0.5,0.5C269.993,105.585,269.77,105.809,269.493,105.809z"/>
					<path style="fill:#FFE6B3;" d="M269.493,120.85h-30.081c-0.276,0-0.5-0.224-0.5-0.5c0-0.276,0.224-0.5,0.5-0.5h30.081
						c0.276,0,0.5,0.224,0.5,0.5C269.993,120.626,269.77,120.85,269.493,120.85z"/>
				</g>
				<g>
					<g>
						<g>
							<path style="fill:#FFE6B3;" d="M239.412,120.85c-0.13,0-0.258-0.051-0.354-0.146l-7.167-7.167l-7.167,7.167
								c-0.195,0.195-0.512,0.195-0.707,0c-0.195-0.195-0.195-0.512,0-0.707l7.166-7.167l-7.166-7.167
								c-0.195-0.195-0.195-0.512,0-0.707c0.195-0.195,0.512-0.195,0.707,0l7.167,7.167l7.167-7.167
								c0.143-0.144,0.358-0.186,0.545-0.108c0.187,0.077,0.309,0.26,0.309,0.462v15.041c0,0.202-0.122,0.385-0.309,0.462
								C239.541,120.837,239.477,120.85,239.412,120.85z M232.599,112.83l6.313,6.313v-12.627L232.599,112.83z"/>
						</g>
						<g>
							<path style="fill:#FFE6B3;" d="M209.331,120.85c-0.064,0-0.129-0.012-0.191-0.038c-0.187-0.077-0.309-0.26-0.309-0.462
								v-15.041c0-0.202,0.122-0.385,0.309-0.462c0.188-0.077,0.402-0.035,0.545,0.108l7.167,7.167l7.167-7.167
								c0.195-0.195,0.512-0.195,0.707,0c0.195,0.195,0.195,0.512,0,0.707l-7.166,7.167l7.166,7.167
								c0.195,0.195,0.195,0.512,0,0.707c-0.195,0.195-0.512,0.195-0.707,0l-7.167-7.167l-7.167,7.167
								C209.589,120.799,209.461,120.85,209.331,120.85z M209.831,106.516v12.627l6.313-6.313L209.831,106.516z"/>
						</g>
					</g>
					<path style="fill:#FFE6B3;" d="M239.412,105.809h-30.081c-0.276,0-0.5-0.224-0.5-0.5c0-0.276,0.224-0.5,0.5-0.5h30.081
						c0.276,0,0.5,0.224,0.5,0.5C239.912,105.585,239.688,105.809,239.412,105.809z"/>
					<path style="fill:#FFE6B3;" d="M239.412,120.85h-30.081c-0.276,0-0.5-0.224-0.5-0.5c0-0.276,0.224-0.5,0.5-0.5h30.081
						c0.276,0,0.5,0.224,0.5,0.5C239.912,120.626,239.688,120.85,239.412,120.85z"/>
				</g>
				<g>
					<g>
						<g>
							<path style="fill:#FFE6B3;" d="M209.331,120.85c-0.13,0-0.258-0.051-0.354-0.146l-7.167-7.167l-7.167,7.167
								c-0.195,0.195-0.512,0.195-0.707,0c-0.195-0.195-0.195-0.512,0-0.707l7.167-7.167l-7.167-7.167
								c-0.195-0.195-0.195-0.512,0-0.707c0.195-0.195,0.512-0.195,0.707,0l7.167,7.167l7.167-7.167
								c0.143-0.144,0.357-0.186,0.545-0.108c0.187,0.077,0.309,0.26,0.309,0.462v15.041c0,0.202-0.121,0.385-0.309,0.462
								C209.461,120.837,209.396,120.85,209.331,120.85z M202.519,112.829l6.313,6.313v-12.627L202.519,112.829z"/>
						</g>
						<g>
							<path style="fill:#FFE6B3;" d="M179.251,120.85c-0.065,0-0.129-0.012-0.191-0.038c-0.187-0.077-0.309-0.26-0.309-0.462
								v-15.041c0-0.202,0.122-0.385,0.309-0.462c0.187-0.077,0.402-0.035,0.545,0.108l7.167,7.167l7.167-7.167
								c0.195-0.195,0.512-0.195,0.707,0c0.195,0.195,0.195,0.512,0,0.707l-7.167,7.167l7.167,7.167
								c0.195,0.195,0.195,0.512,0,0.707c-0.195,0.195-0.512,0.195-0.707,0l-7.167-7.167l-7.167,7.167
								C179.509,120.799,179.381,120.85,179.251,120.85z M179.751,106.516v12.627l6.313-6.313L179.751,106.516z"/>
						</g>
					</g>
					<path style="fill:#FFE6B3;" d="M209.331,105.809h-30.08c-0.276,0-0.5-0.224-0.5-0.5c0-0.276,0.224-0.5,0.5-0.5h30.08
						c0.276,0,0.5,0.224,0.5,0.5C209.831,105.585,209.608,105.809,209.331,105.809z"/>
					<path style="fill:#FFE6B3;" d="M209.331,120.85h-30.08c-0.276,0-0.5-0.224-0.5-0.5c0-0.276,0.224-0.5,0.5-0.5h30.08
						c0.276,0,0.5,0.224,0.5,0.5C209.831,120.626,209.608,120.85,209.331,120.85z"/>
				</g>
				<g>
					<g>
						<g>
							<path style="fill:#FFE6B3;" d="M179.251,120.85c-0.13,0-0.258-0.051-0.354-0.146l-7.167-7.167l-7.167,7.167
								c-0.195,0.195-0.512,0.195-0.707,0c-0.195-0.195-0.195-0.512,0-0.707l7.167-7.167l-7.167-7.167
								c-0.195-0.195-0.195-0.512,0-0.707c0.195-0.195,0.512-0.195,0.707,0l7.167,7.167l7.167-7.167
								c0.144-0.144,0.357-0.186,0.545-0.108c0.187,0.077,0.309,0.26,0.309,0.462v15.041c0,0.202-0.122,0.385-0.309,0.462
								C179.38,120.837,179.315,120.85,179.251,120.85z M172.438,112.829l6.313,6.313v-12.627L172.438,112.829z"/>
						</g>
						<g>
							<path style="fill:#FFE6B3;" d="M149.17,120.85c-0.064,0-0.129-0.012-0.191-0.038c-0.187-0.077-0.309-0.26-0.309-0.462
								v-15.041c0-0.202,0.122-0.385,0.309-0.462c0.187-0.077,0.402-0.035,0.545,0.108l7.167,7.167l7.166-7.167
								c0.195-0.195,0.512-0.195,0.707,0c0.195,0.195,0.195,0.512,0,0.707l-7.167,7.167l7.167,7.167
								c0.195,0.195,0.195,0.512,0,0.707c-0.195,0.195-0.512,0.195-0.707,0l-7.166-7.167l-7.167,7.167
								C149.428,120.799,149.3,120.85,149.17,120.85z M149.67,106.516v12.627l6.313-6.313L149.67,106.516z"/>
						</g>
					</g>
					<path style="fill:#FFE6B3;" d="M179.251,120.85h-45.343c-0.203,0-0.386-0.123-0.462-0.311
						c-0.077-0.188-0.033-0.403,0.111-0.545l15.262-15.041c0.094-0.092,0.22-0.144,0.351-0.144h30.081c0.276,0,0.5,0.224,0.5,0.5
						c0,0.276-0.224,0.5-0.5,0.5h-29.876l-14.247,14.041h44.123c0.276,0,0.5,0.224,0.5,0.5
						C179.751,120.626,179.527,120.85,179.251,120.85z"/>
				</g>
			</g>
		</g>
		<g>
			<g>
				<g>
					<g>
						<path style="fill:#FFE6B3;" d="M371.482,95.881h-15.041c-0.202,0-0.385-0.122-0.462-0.309
							c-0.077-0.187-0.034-0.402,0.108-0.545l7.167-7.166l-7.167-7.167c-0.195-0.195-0.195-0.512,0-0.707
							c0.195-0.195,0.512-0.195,0.707,0l7.167,7.167l7.167-7.167c0.195-0.195,0.512-0.195,0.707,0c0.195,0.195,0.195,0.512,0,0.707
							l-7.167,7.167l7.167,7.166c0.143,0.143,0.186,0.358,0.108,0.545C371.867,95.759,371.685,95.881,371.482,95.881z
							 M357.648,94.881h12.627l-6.314-6.313L357.648,94.881z"/>
					</g>
					<g>
						<path style="fill:#FFE6B3;" d="M371.482,80.841c-0.128,0-0.256-0.049-0.354-0.146l-7.167-7.166l-7.167,7.166
							c-0.195,0.195-0.512,0.195-0.707,0c-0.195-0.195-0.195-0.512,0-0.707l7.167-7.166l-7.167-7.167
							c-0.143-0.143-0.186-0.358-0.108-0.545c0.077-0.187,0.26-0.309,0.462-0.309h15.041c0.202,0,0.385,0.122,0.462,0.309
							c0.077,0.187,0.034,0.402-0.108,0.545l-7.167,7.167l7.167,7.166c0.195,0.195,0.195,0.512,0,0.707
							C371.738,80.792,371.61,80.841,371.482,80.841z M357.648,65.8l6.314,6.313l6.314-6.313H357.648z"/>
					</g>
				</g>
				<path style="fill:#FFE6B3;" d="M371.482,95.881c-0.276,0-0.5-0.224-0.5-0.5V65.3c0-0.276,0.224-0.5,0.5-0.5
					c0.276,0,0.5,0.224,0.5,0.5v30.081C371.982,95.657,371.759,95.881,371.482,95.881z"/>
				<path style="fill:#FFE6B3;" d="M356.441,95.881c-0.276,0-0.5-0.224-0.5-0.5V65.3c0-0.276,0.224-0.5,0.5-0.5
					c0.276,0,0.5,0.224,0.5,0.5v30.081C356.941,95.657,356.718,95.881,356.441,95.881z"/>
			</g>
			<rect x="353.892" y="51.506" style="fill:#FFE6B3;" width="20.139" height="15.124"/>
		</g>
		<g>
			<g>
				<g>
					<g>
						<path style="fill:#FFE6B3;" d="M383.3,122.265c-0.064,0-0.13-0.012-0.191-0.038c-0.187-0.077-0.309-0.26-0.309-0.462v-15.04
							c0-0.202,0.122-0.385,0.309-0.462c0.186-0.078,0.401-0.035,0.545,0.108l7.167,7.166l7.167-7.166
							c0.195-0.195,0.512-0.195,0.707,0c0.195,0.195,0.195,0.512,0,0.707l-7.167,7.166l7.167,7.167c0.195,0.195,0.195,0.512,0,0.707
							c-0.195,0.195-0.512,0.195-0.707,0l-7.167-7.167l-7.167,7.167C383.558,122.214,383.43,122.265,383.3,122.265z M383.8,107.932
							v12.626l6.314-6.313L383.8,107.932z"/>
					</g>
					<g>
						<path style="fill:#FFE6B3;" d="M413.381,122.265c-0.13,0-0.258-0.051-0.354-0.146l-7.166-7.167l-7.167,7.167
							c-0.195,0.195-0.512,0.195-0.707,0c-0.195-0.195-0.195-0.512,0-0.707l7.166-7.167l-7.166-7.166
							c-0.195-0.195-0.195-0.512,0-0.707c0.195-0.195,0.512-0.195,0.707,0l7.167,7.166l7.166-7.166
							c0.144-0.144,0.359-0.187,0.545-0.108c0.186,0.077,0.309,0.26,0.309,0.462v15.04c0,0.202-0.122,0.385-0.309,0.462
							C413.511,122.252,413.445,122.265,413.381,122.265z M406.568,114.245l6.313,6.313v-12.626L406.568,114.245z"/>
					</g>
				</g>
				<path style="fill:#FFE6B3;" d="M413.381,122.265H383.3c-0.276,0-0.5-0.224-0.5-0.5c0-0.276,0.224-0.5,0.5-0.5h30.081
					c0.276,0,0.5,0.224,0.5,0.5C413.881,122.041,413.657,122.265,413.381,122.265z"/>
				<path style="fill:#FFE6B3;" d="M413.381,107.225H383.3c-0.276,0-0.5-0.224-0.5-0.5c0-0.276,0.224-0.5,0.5-0.5h30.081
					c0.276,0,0.5,0.224,0.5,0.5C413.881,107.001,413.657,107.225,413.381,107.225z"/>
			</g>
			
				<rect x="409.543" y="106.682" transform="matrix(-1.836970e-16 1 -1 -1.836970e-16 533.8574 -305.3682)" style="fill:#FFE6B3;" width="20.139" height="15.124"/>
		</g>
		<path style="fill:#FFE6B3;" d="M151.434,105.809c-0.224,0-0.428-0.151-0.484-0.378c-0.067-0.268,0.096-0.54,0.364-0.606
			L356.32,53.539c0.263-0.068,0.539,0.096,0.607,0.363c0.066,0.268-0.096,0.539-0.364,0.606l-205.006,51.286
			C151.515,105.804,151.475,105.809,151.434,105.809z"/>
		<path style="fill:#FFE6B3;" d="M425.477,107.225c-0.126,0-0.252-0.047-0.35-0.142l-53.994-52.701
			c-0.197-0.193-0.201-0.51-0.008-0.707c0.192-0.198,0.509-0.201,0.707-0.009l53.994,52.701c0.197,0.193,0.201,0.51,0.008,0.707
			C425.736,107.174,425.606,107.225,425.477,107.225z"/>
	</g>
	<g>
		<g>
			<path style="fill:#B77539;" d="M436.962,409.209h-0.116c-22.825,0.21-45.661,0.421-68.487,0.631
				c-9.635,0.084-19.27,0.179-28.905,0.263c-21.258,0.2-42.506,0.389-63.764,0.589c-3.44,0.032-7.363-0.147-9.467-2.808
				c1.062-0.768,2.135-1.052,3.198-1.83c9.772-21.216,32.997-35.753,55.906-35.006c8.836-11.097,22.026-18.607,35.889-20.08
				c4.281-6.248,9.456-12.465,15.599-16.872c2.177-1.557,4.628-2.829,7.184-3.66c4.649-1.536,9.624-1.651,13.853,0.452
				c4.66,2.303,7.71,6.848,10.298,11.36c5.512,9.582,9.867,19.87,12.959,30.557c10.74,4.25,19.607,13.075,24.014,23.783
				C447.555,402.466,443.326,409.103,436.962,409.209z"/>
			<path style="fill:#994625;" d="M436.962,409.209h-0.116c-22.825,0.21-45.661,0.421-68.487,0.631
				c11.223-1.125,22.373-2.829,32.976-6.574c4.965-1.757,10.371-4.628,11.518-9.772c0.631-2.808-0.189-5.754-1.452-8.341
				c-2.903-5.964-8.078-10.582-13.822-13.906c-5.733-3.334-12.086-5.312-18.366-7.458c9.582-0.221,19.501,1.304,28.295,5.102
				c-2.209-6.385-3.25-13.117-5.375-19.533c-2.114-6.406-5.554-12.728-11.234-16.388c-2.062-1.325-4.449-2.198-6.9-2.535
				c4.649-1.536,9.624-1.651,13.853,0.452c4.66,2.303,7.71,6.848,10.298,11.36c5.512,9.582,9.867,19.87,12.959,30.557
				c10.74,4.25,19.607,13.075,24.014,23.783C447.555,402.466,443.326,409.103,436.962,409.209z"/>
		</g>
		<g>
			<path style="fill:#995924;" d="M376.966,344.654c-1.354,0-1.356,2.104,0,2.104C378.319,346.758,378.322,344.654,376.966,344.654z
				"/>
			<path style="fill:#995924;" d="M381.78,341.088c-2.03,0-2.034,3.155,0,3.155C383.81,344.243,383.814,341.088,381.78,341.088z"/>
			<path style="fill:#995924;" d="M384.82,347.714c-0.677,0-0.678,1.052,0,1.052C385.497,348.766,385.498,347.714,384.82,347.714z"
				/>
			<path style="fill:#995924;" d="M350.362,365.703c-0.677,0-0.678,1.052,0,1.052C351.039,366.755,351.04,365.703,350.362,365.703z"
				/>
			<path style="fill:#995924;" d="M355.43,365.937c-1.354,0-1.356,2.104,0,2.104C356.783,368.041,356.785,365.937,355.43,365.937z"
				/>
			<path style="fill:#995924;" d="M353.656,370.986c-2.03,0-2.034,3.156,0,3.156C355.686,374.141,355.69,370.986,353.656,370.986z"
				/>
			<path style="fill:#995924;" d="M384.82,386.441c-2.03,0-2.034,3.156,0,3.156C386.851,389.597,386.854,386.441,384.82,386.441z"/>
			<path style="fill:#995924;" d="M385.074,381.646c-1.354,0-1.356,2.104,0,2.104C386.427,383.75,386.429,381.646,385.074,381.646z"
				/>
			<path style="fill:#995924;" d="M391.154,384.706c-0.677,0-0.678,1.052,0,1.052C391.831,385.758,391.832,384.706,391.154,384.706z
				"/>
			<path style="fill:#995924;" d="M362.524,390.767c-1.354,0-1.356,2.104,0,2.104C363.877,392.871,363.88,390.767,362.524,390.767z"
				/>
			<path style="fill:#995924;" d="M367.844,387.493c-0.677,0-0.678,1.052,0,1.052C368.521,388.545,368.522,387.493,367.844,387.493z
				"/>
			<path style="fill:#995924;" d="M290.06,397.628c-0.677,0-0.678,1.052,0,1.052C290.737,398.68,290.738,397.628,290.06,397.628z"/>
			<path style="fill:#995924;" d="M291.834,391.527c-1.354,0-1.356,2.104,0,2.104C293.188,393.631,293.19,391.527,291.834,391.527z"
				/>
			<path style="fill:#995924;" d="M295.634,394.802c-2.03,0-2.034,3.156,0,3.156C297.665,397.958,297.668,394.802,295.634,394.802z"
				/>
			<path style="fill:#995924;" d="M313.624,401.409c-1.354,0-1.356,2.104,0,2.104C314.977,403.513,314.979,401.409,313.624,401.409z
				"/>
			<path style="fill:#995924;" d="M309.57,403.708c-0.677,0-0.678,1.052,0,1.052C310.246,404.76,310.248,403.708,309.57,403.708z"/>
			<path style="fill:#995924;" d="M369.111,405.229c-0.677,0-0.678,1.052,0,1.052C369.788,406.28,369.789,405.229,369.111,405.229z"
				/>
			<path style="fill:#995924;" d="M373.165,402.929c-1.354,0-1.356,2.104,0,2.104C374.519,405.033,374.521,402.929,373.165,402.929z
				"/>
			<path style="fill:#995924;" d="M278.405,403.436c-1.354,0-1.356,2.104,0,2.104C279.759,405.54,279.761,403.436,278.405,403.436z"
				/>
			<path style="fill:#995924;" d="M278.405,400.921c-0.677,0-0.678,1.052,0,1.052C279.082,401.973,279.083,400.921,278.405,400.921z
				"/>
		</g>
	</g>
	<g>
		<polygon style="fill:#F7C995;" points="234.506,360.19 234.506,357.853 216.645,357.853 216.645,343.046 216.521,343.046 
			216.521,340.708 198.659,340.708 198.659,326.086 198.659,325.901 198.659,323.748 180.798,323.748 180.798,308.941 
			111.388,308.941 111.388,323.748 93.526,323.748 93.526,325.901 93.402,325.901 93.402,340.708 75.54,340.708 75.54,343.046 
			75.54,357.853 57.679,357.853 57.679,359.822 57.555,359.822 57.555,374.629 39.693,374.629 39.693,376.966 57.555,376.966 
			57.555,394.111 75.54,394.111 75.54,408.918 216.645,408.918 216.645,394.111 234.506,394.111 234.506,391.773 216.645,391.773 
			216.645,360.19 		"/>
		<g>
			<rect x="57.555" y="394.111" style="fill:#C64B17;" width="33.563" height="14.807"/>
			<rect x="93.402" y="394.111" style="fill:#B23104;" width="33.563" height="14.807"/>
			<rect x="129.249" y="394.111" style="fill:#C64B17;" width="33.563" height="14.807"/>
			<rect x="165.096" y="394.111" style="fill:#B23104;" width="33.563" height="14.807"/>
			<rect x="200.943" y="394.111" style="fill:#C64B17;" width="33.563" height="14.807"/>
			<rect x="57.555" y="359.822" style="fill:#C64B17;" width="33.563" height="14.807"/>
			<rect x="93.402" y="359.822" style="fill:#B23104;" width="33.563" height="14.807"/>
			<rect x="129.249" y="359.822" style="fill:#C64B17;" width="33.563" height="14.807"/>
			<rect x="165.096" y="359.822" style="fill:#B23104;" width="33.563" height="14.807"/>
			<rect x="200.943" y="359.822" style="fill:#C64B17;" width="33.563" height="14.807"/>
			<rect x="93.402" y="325.901" style="fill:#B23104;" width="33.563" height="14.807"/>
			<rect x="129.249" y="325.901" style="fill:#C64B17;" width="33.563" height="14.807"/>
			<rect x="165.096" y="325.901" style="fill:#B23104;" width="33.563" height="14.807"/>
			<rect x="39.693" y="376.966" style="fill:#C64B17;" width="33.563" height="14.807"/>
			<rect x="75.54" y="376.966" style="fill:#B23104;" width="33.563" height="14.807"/>
			<rect x="111.387" y="376.966" style="fill:#C64B17;" width="33.563" height="14.807"/>
			<rect x="147.235" y="376.966" style="fill:#B23104;" width="33.563" height="14.807"/>
			<rect x="183.082" y="376.966" style="fill:#C64B17;" width="33.563" height="14.807"/>
			<rect x="75.54" y="343.046" style="fill:#B23104;" width="33.563" height="14.807"/>
			<rect x="111.387" y="343.046" style="fill:#C64B17;" width="33.563" height="14.807"/>
			<rect x="147.235" y="343.046" style="fill:#B23104;" width="33.563" height="14.807"/>
			<rect x="111.387" y="308.941" style="fill:#C64B17;" width="33.563" height="14.807"/>
			<rect x="147.235" y="308.941" style="fill:#B23104;" width="33.563" height="14.807"/>
			<rect x="183.082" y="343.046" style="fill:#C64B17;" width="33.563" height="14.807"/>
		</g>
	</g>
	<g>
		<g>
			<polygon style="fill:#B23104;" points="44.482,229.676 62.346,224.843 67.834,229.676 			"/>
			<polygon style="fill:#C64B17;" points="85.698,235.164 224.399,197.254 224.399,191.766 85.698,229.676 			"/>
			<polygon style="fill:#B23104;" points="67.834,229.676 85.698,229.676 224.399,191.766 206.535,191.766 			"/>
			<polygon style="fill:#962000;" points="67.834,229.676 67.834,208.183 206.535,170.273 206.535,191.766 			"/>
			<polygon style="fill:#C64B17;" points="85.698,208.183 85.698,202.683 67.834,202.683 62.346,202.683 44.482,202.683 
				44.482,208.183 62.346,208.183 62.346,229.676 44.482,229.676 44.482,235.164 62.346,235.164 67.834,235.164 85.698,235.164 
				85.698,229.676 67.834,229.676 67.834,208.183 			"/>
			<polygon style="fill:#C64B17;" points="85.698,202.683 224.399,164.773 224.399,170.273 85.698,208.183 			"/>
			<polygon style="fill:#B23104;" points="44.482,202.683 183.183,164.773 224.399,164.773 85.698,202.683 			"/>
		</g>
		<path style="fill:#374A67;" d="M212.325,167.513h-20.755c-0.013-0.021-0.016-0.046-0.031-0.066l-53.354-72.43V54.023
			c0-0.552-0.448-1-1-1c-0.552,0-1,0.448-1,1v41.058L78.293,197.184c-0.037,0.065-0.046,0.136-0.067,0.205H58.195
			c-0.552,0-1,0.448-1,1c0,0.552,0.448,1,1,1h43.237v30.967c0,0.552,0.448,1,1,1c0.552,0,1-0.448,1-1v-31.967c0-0.552-0.448-1-1-1
			H80.476L137.294,97.18l51.809,70.333H169.5c-0.552,0-1,0.448-1,1c0,0.552,0.448,1,1,1h41.825v31.042c0,0.552,0.448,1,1,1
			c0.552,0,1-0.448,1-1v-32.042C213.325,167.96,212.877,167.513,212.325,167.513z"/>
	</g>
	<g>
		<ellipse style="fill:#FFE6B3;" cx="287.268" cy="439.057" rx="81.667" ry="9.436"/>
		<g>
			<g>
				<g>
					<g>
						<path style="fill:#EFAD9C;" d="M303.078,343.208c-1.301-12.737-2.996-28.931-4.542-46.342
							c-1.197-13.483-6.25-26.336-14.59-36.998l-5.134-6.563l-13.389,23.102c0,0-0.567,24.438,7.089,49.627
							c0.765,2.518,6.389,21.232,15.392,32.472c14.968,18.687,32.56,40.647,47.749,59.531c3.175,1.448,11.144,0.58,12.048-4.494
							C347.703,413.543,333.898,396.724,303.078,343.208z"/>
						<path style="fill:#B23104;" d="M295.198,273.085c7.287,22.157,10.298,45.712,8.818,68.989l37.221,60.808l-13.609,7.826
							c0,0-40-43.785-53.673-74.722c-10.877-24.608-8.53-59.579-8.53-59.579L295.198,273.085z"/>
					</g>
					<path d="M343.387,406.526l-12.158,6.523l4.588,6.608c-5.127,8.856-19.551,9.123-12.931,20.478
						c17.214-7.727,22.325-17.66,22.325-17.66l1.794,2.957l5.512-3.563c0,0-0.805-5.421-3.931-9.091L343.387,406.526z"/>
				</g>
				<g>
					<g>
						<path style="fill:#EFAD9C;" d="M295.541,266.957c0,0-16.874,44.345-27.742,70.674c-2.008,4.865-3.49,9.929-4.421,15.11
							c-4.237,23.565-9.359,51.937-13.302,75.849c2.978,3.993,8.471,2.394,12.855-0.316c0,0,2.639-15.774,21.965-74.428
							c6.47-11.049,14.663-25.119,23.695-40.085c6.994-11.589,10.505-24.946,10.068-38.475l-0.269-8.328H295.541z"/>
						<path style="fill:#C64B17;" d="M249.494,418.667h18.518l18.165-62.467c0,0,38.566-51.533,32.305-86.419l-28.135,2.676
							l-24.78,69.172c-0.395,1.103-0.712,2.232-0.947,3.38L249.494,418.667z"/>
					</g>
					<path d="M263.338,429.872l2.408-8.392h-15.308l-1.602,7.905c-8.889,5.069-21.485-1.965-21.484,11.179
						c18.763,1.994,28.181-4.014,28.181-4.014l0.061,3.458l6.556-0.302c0,0,2.035-5.089,1.182-9.834L263.338,429.872z"/>
				</g>
			</g>
			<g>
				<g>
					<g>
						<g>
							<path style="fill:#EFAD9C;" d="M270.457,176.706l-15.587,21.106c-0.059,9.268-1.754,19.304-4.174,28.973
								c-20.822,15.624-43.906,26.182-43.906,26.182l3.566,8.606c16.366-7.057,33.244-16.28,45.274-23.583
								c3.521-2.137,6.13-5.506,7.329-9.446C273.453,194.061,270.457,176.706,270.457,176.706z"/>
							<path style="fill:#79A1DF;" d="M214.56,247.689l4.565,11.338c0,0,37.111-18.823,42.116-23.989s9.613-45.026,9.613-45.026
								l-5.879-12.793c0,0-8.594,5.384-10.656,16.281c-2.062,10.897-4.242,32.837-4.242,32.837
								C238.756,234.605,226.938,241.768,214.56,247.689z"/>
						</g>
						<path style="fill:#EFAD9C;" d="M192.092,266.253c0.534,0.42,1.25,0.196,1.652-0.272c1.295-1.506,2.516-3.073,3.662-4.694
							c1.94,1.305,4.201,2.18,6.52,2.453c2.314,0.272,4.903-0.29,6.46-2.09c0.163-0.083,0.304-0.202,0.4-0.357
							c1.169-1.895,1.408-4.194,0.92-6.346c-0.447-1.972-1.388-3.717-2.383-5.456c-0.206-0.361-0.408-0.725-0.585-1.101
							c-0.088-0.186-0.17-0.375-0.244-0.567c-0.03-0.079-0.059-0.159-0.086-0.239c-0.007-0.019-0.017-0.056-0.025-0.089
							c-0.05-0.212-0.082-0.423-0.119-0.638c-0.004-0.023-0.007-0.039-0.01-0.054c0.001-0.011,0.001-0.021,0.002-0.036
							c0.004-0.099,0.006-0.197,0.015-0.295c0.008-0.083,0.027-0.164,0.034-0.247c0.007-0.04,0.01-0.056,0.008-0.05
							c0.014-0.063,0.029-0.127,0.043-0.19c0.054-0.254,0.079-0.504,0.035-0.766c-0.12-0.714-0.715-1.275-1.435-1.342
							c-0.561-0.052-1.138,0.187-1.558,0.548c-0.782,0.671-1.176,1.773-1.303,2.767c-0.176,1.369,0.186,2.669,0.731,3.899
							c-0.342-0.085-0.684-0.17-1.025-0.253c-5.038-1.236-10.127-2.342-15.305-2.79c-0.592-0.051-1.126,0.348-1.255,0.919
							c-0.122,0.54,0.17,1.203,0.736,1.371l5.778,1.713c0.625,0.185,1.25,0.37,1.873,0.562c-2.924,0.736-5.849,1.473-8.773,2.209
							c-0.58,0.146-0.992,0.372-0.97,0.99c0.021,0.591,0.678,0.913,1.268,0.978c2.503,0.277,5.144-0.059,7.618-0.443
							c-1.806,1.305-4.002,3.092-5.871,4.306c-0.496,0.323-0.538,1.076-0.257,1.535c0.332,0.541,1.014,0.365,1.583,0.184
							c1.627-0.516,3.494-2.057,5.025-2.797c-0.964,1.316-2.364,3.786-3.428,5.024C191.387,265.104,191.624,265.885,192.092,266.253
							z"/>
					</g>
					<g>
						<path style="fill:#79A1DF;" d="M319.02,272.242c0,0-12.44,10.33-53.6,4.17c2.34-19.88,2.78-41.86,2.42-60.08
							c-0.43-21.06-1.94-37.1-2.87-39.11c1.51-0.91,3.11-1.72,4.8-2.43c1.7-0.72,3.49-1.35,5.36-1.88c0.82-0.24,1.65-0.47,2.5-0.67
							l12.68-0.76c1.35,0.16,2.68,0.36,4,0.63c2.08,0.41,4.12,0.96,6.12,1.67c1,0.34,1.98,0.73,2.96,1.15c0,0,3.97,15.06,8.12,38.71
							C314.34,229.842,317.259,250.072,319.02,272.242z"/>
						<g>
							<path style="fill:#C64B17;" d="M319.02,272.242c0,0-12.46,13.28-53.6,4.17c2.34-19.88,2.78-41.86,2.42-60.08l5.5-6.13
								l-3.57-35.41c1.7-0.72,3.49-1.35,5.36-1.88c1.29,12.13,3.31,24.23,4.61,36.37c5.88-0.19,11.31-0.31,17.19-0.5
								c0.04-12.28-0.67-24.55-2.62-36.67c2.08,0.41,4.12,0.96,6.12,1.67c2.4,13.77,2.96,35.51,2.96,35.51l8.12,4.35
								C314.34,229.842,317.259,250.072,319.02,272.242z"/>
							<path style="fill:#B23104;" d="M306.133,226.618c-10.409-3.094-21.253-2.879-31.603,0.628c0.14,2.59,0.045,5.509,0.185,8.099
								c9.811,6.94,21.861,6.419,31.44-1.21C306.053,231.775,306.235,228.978,306.133,226.618z"/>
							<path style="fill:#B23104;" d="M275.13,172.912c1.29,12.13,3.31,24.23,4.61,36.37l-6.4,0.92l-3.57-35.41
								C271.47,174.072,273.259,173.442,275.13,172.912z"/>
							<path style="fill:#B23104;" d="M303.389,209.292l-6.46-0.51c0.04-12.28-0.67-24.55-2.62-36.67c2.08,0.41,4.12,0.96,6.12,1.67
								C302.829,187.552,303.389,209.292,303.389,209.292z"/>
						</g>
					</g>
				</g>
				<g>
					<g>
						<path style="fill:#1B1B28;" d="M298.694,125.519c-1.743-3.399-5.747-5.652-9.341-4.655
							c-4.532-6.472-15.261-6.665-21.804-3.443c-8.101,3.989-11.691,14.18-6.24,21.799c5.524,7.722,15.987,9.617,21.4,17.379
							c1.181,1.693,2.651,3.59,4.967,3.407c2.133-0.168,3.378-2.16,4.38-3.806c2.84-4.665,4.982-9.749,6.427-15.013
							C299.859,136.177,301.2,130.407,298.694,125.519z"/>
						<path style="fill:#EFAD9C;" d="M289.339,127.725c-6.352-10.156-26.284-5.371-27.351,3.069
							c-2.197,17.36,0.669,24.262,5.683,28.033c5.802,4.364,9.37,3.551,9.958,13.413c2.401,5.124,10.456,5.362,12.685-0.757
							c-0.938-13.053,2.954-23.22,2.954-23.22S291.959,131.913,289.339,127.725z"/>
						<path style="fill:#1B1B28;" d="M287.331,130.18c-3.162,5.193-10.189,4.459-10.189,4.459l3.81-3.699
							c0,0-9.59,6.478-19.975,5.051c0,0-1.731-3.677,2.507-10.234c2.711-4.195,11.232-5.698,18.63-4.783
							c7.397,0.915,10.768,3.907,11.32,9.141c0.552,5.235,1.476,11.757,1.476,11.757l-2.71,2.335
							C287.568,141.502,287.331,130.18,287.331,130.18z"/>
						<g>
							<g>
								<path d="M278,144.643c0.043,0.713-0.501,1.326-1.214,1.369c-0.713,0.042-1.326-0.501-1.369-1.215
									c-0.043-0.713,0.501-1.326,1.215-1.369C277.344,143.387,277.957,143.93,278,144.643z"/>
								<path style="fill:#FFFFFF;" d="M276.687,144.367c0.016,0.261-0.184,0.486-0.445,0.501c-0.261,0.016-0.486-0.184-0.501-0.445
									c-0.016-0.261,0.184-0.486,0.445-0.501C276.447,143.907,276.672,144.106,276.687,144.367z"/>
							</g>
							<g>
								<path d="M268.01,145.24c0.043,0.713-0.501,1.326-1.215,1.369c-0.713,0.043-1.326-0.501-1.368-1.214
									c-0.043-0.713,0.501-1.326,1.214-1.369C267.354,143.983,267.967,144.526,268.01,145.24z"/>
								<path style="fill:#FFFFFF;" d="M266.697,144.964c0.016,0.261-0.184,0.486-0.445,0.501s-0.486-0.184-0.501-0.445
									c-0.016-0.261,0.184-0.486,0.445-0.501C266.457,144.503,266.682,144.702,266.697,144.964z"/>
							</g>
							<path style="fill:#1B1B28;" d="M268.573,140.131c-1.69-1.033-3.793-0.842-5.244,0.572c-0.272,0.265-0.292,0.766-0.055,1.075
								c0.242,0.316,0.667,0.346,0.939,0.081c0.595-0.58,1.38-0.873,2.164-0.862c0.396,0.006,0.793,0.088,1.166,0.247
								c0.331,0.141,0.659,0.4,1.008,0.171c0.083-0.054,0.153-0.132,0.206-0.223C268.94,140.882,268.893,140.327,268.573,140.131z"
								/>
							<path style="fill:#1B1B28;" d="M273.607,139.831c1.793-1.24,4.213-1.32,6.045-0.102c0.343,0.228,0.43,0.723,0.2,1.06
								c-0.235,0.344-0.716,0.428-1.06,0.2c-0.752-0.499-1.682-0.68-2.572-0.567c-0.45,0.057-0.891,0.188-1.298,0.388
								c-0.359,0.177-0.705,0.472-1.128,0.291c-0.101-0.043-0.191-0.112-0.263-0.195
								C273.285,140.622,273.267,140.066,273.607,139.831z"/>
							<path style="fill:#C16B5B;" d="M271.647,152.392c-0.704,0.042-1.447-0.068-2.177-0.398c-0.34-0.154-0.492-0.554-0.338-0.894
								c0.154-0.34,0.553-0.491,0.894-0.338c1.762,0.794,3.613-0.241,4.112-1.02c0.202-0.312,0.62-0.405,0.934-0.203
								c0.314,0.202,0.405,0.62,0.203,0.934C274.688,151.388,273.27,152.295,271.647,152.392z"/>
							<path style="fill:#C16B5B;" d="M269.824,148.646c-0.073,0.004-0.143-0.04-0.169-0.112c-0.385-1.082-0.033-1.479,0.33-1.621
								c0.368-0.142,0.824-0.073,1.355,0.213c0.082,0.044,0.113,0.147,0.069,0.229c-0.045,0.082-0.149,0.112-0.229,0.069
								c-0.438-0.236-0.799-0.302-1.071-0.195c-0.326,0.127-0.371,0.528-0.135,1.193c0.031,0.087-0.015,0.184-0.103,0.216
								C269.855,148.643,269.839,148.645,269.824,148.646z"/>
						</g>
						<g>
							<path style="fill:#EFAD9C;" d="M297.708,148.376c-1.604,2.162-4.296,2.883-6.012,1.61c-1.716-1.273-1.807-4.058-0.203-6.22
								c1.604-2.162,4.296-2.883,6.012-1.61C299.221,143.429,299.312,146.214,297.708,148.376z"/>
							<path style="fill:#C16B5B;" d="M296.438,143.231c-0.757-0.344-1.735-0.268-2.615,0.207c-0.438,0.236-0.75,0.51-0.955,0.838
								c-0.27,0.434-0.321,0.962-0.132,1.378c0.168,0.373,0.488,0.602,0.77,0.805c0.204,0.147,0.397,0.285,0.511,0.458
								c0.176,0.265,0.159,0.651-0.041,0.899c-0.199,0.247-0.573,0.346-0.869,0.23c-0.175-0.068-0.37,0.018-0.438,0.191
								c-0.068,0.173,0.017,0.37,0.191,0.438c0.19,0.075,0.394,0.104,0.595,0.092c0.401-0.024,0.792-0.211,1.047-0.527
								c0.383-0.476,0.415-1.189,0.077-1.698c-0.182-0.274-0.446-0.464-0.679-0.631c-0.233-0.168-0.454-0.327-0.548-0.536
								c-0.095-0.209-0.06-0.5,0.091-0.741c0.06-0.097,0.146-0.187,0.24-0.274c0.335-0.023,0.761,0.055,0.986,0.274
								c0.254,0.247,0.39,0.619,0.353,0.971c-0.019,0.186,0.115,0.352,0.301,0.371c0.019,0.002,0.037,0.002,0.056,0.001
								c0.162-0.01,0.298-0.136,0.315-0.303c0.059-0.561-0.148-1.131-0.554-1.526c-0.151-0.146-0.335-0.241-0.526-0.315
								c0.549-0.184,1.102-0.187,1.543,0.013c0.544,0.247,0.986,0.944,0.75,1.546c-0.068,0.174,0.018,0.37,0.192,0.438
								c0.174,0.068,0.369-0.017,0.438-0.191C297.881,144.762,297.377,143.659,296.438,143.231z"/>
						</g>
					</g>
					<g>
						<path style="fill:#FABF4A;" d="M299.37,137.702c-3.25-2.67-6.76-4.43-10.28-5.52c-14.74-4.57-29.96,2.37-29.96,2.37
							c-1.53-5.71-0.06-10.56,3.05-14.22c2.67-3.15,6.56-5.42,10.82-6.58c4.71-1.31,9.86-1.27,14.31,0.41
							c0.53,0.18,1.05,0.41,1.56,0.65C305.87,122.982,299.37,137.702,299.37,137.702z"/>
						<path style="fill:#EF8A2E;" d="M294.601,134.497c0,0-33.332,4.263-43.041,0.25
							C241.851,130.733,281.025,125.585,294.601,134.497z"/>
						<path style="fill:#EF8A2E;" d="M287.31,114.162c-2.34-0.21-4.72,0.17-6.8,1.28c-3,1.59-5.35,4.41-6.33,7.65
							c-2.56,0.04-4.78-0.42-7.31-0.71c0.59-3.37,2.66-6.47,5.56-8.3c0.19-0.12,0.37-0.23,0.57-0.33
							C277.71,112.442,282.86,112.482,287.31,114.162z"/>
					</g>
				</g>
			</g>
			<g>
				<g>
					<path style="fill:#374A67;" d="M207.02,317.718c-1.232,0.055-2.344-0.807-2.569-2.053c-0.245-1.359,0.658-2.659,2.016-2.905
						l238.47-43.044c1.369-0.255,2.66,0.658,2.905,2.016c0.246,1.359-0.657,2.659-2.016,2.905l-238.471,43.044
						C207.243,317.701,207.131,317.713,207.02,317.718z"/>
					<g>
						<path style="fill:#374A67;" d="M197.135,275.837c-1.232,0.055-2.344-0.807-2.569-2.053c-0.245-1.359,0.658-2.659,2.016-2.905
							l238.469-43.045c1.367-0.245,2.66,0.658,2.905,2.016c0.246,1.358-0.657,2.659-2.016,2.904l-238.47,43.045
							C197.358,275.82,197.246,275.832,197.135,275.837z"/>
						<g>
							
								<line style="fill:none;stroke:#374A67;stroke-width:3;stroke-linecap:round;stroke-linejoin:round;stroke-miterlimit:10;" x1="422.974" y1="232.2" x2="433.24" y2="274.471"/>
							
								<line style="fill:none;stroke:#374A67;stroke-width:3;stroke-linecap:round;stroke-linejoin:round;stroke-miterlimit:10;" x1="398.664" y1="236.901" x2="408.93" y2="279.172"/>
							
								<line style="fill:none;stroke:#374A67;stroke-width:3;stroke-linecap:round;stroke-linejoin:round;stroke-miterlimit:10;" x1="374.354" y1="241.602" x2="384.62" y2="283.874"/>
							
								<line style="fill:none;stroke:#374A67;stroke-width:3;stroke-linecap:round;stroke-linejoin:round;stroke-miterlimit:10;" x1="350.044" y1="246.303" x2="360.31" y2="288.575"/>
							
								<line style="fill:none;stroke:#374A67;stroke-width:3;stroke-linecap:round;stroke-linejoin:round;stroke-miterlimit:10;" x1="325.734" y1="251.004" x2="335.543" y2="291.393"/>
							
								<line style="fill:none;stroke:#374A67;stroke-width:3;stroke-linecap:round;stroke-linejoin:round;stroke-miterlimit:10;" x1="301.424" y1="255.705" x2="311.179" y2="295.87"/>
							
								<line style="fill:none;stroke:#374A67;stroke-width:3;stroke-linecap:round;stroke-linejoin:round;stroke-miterlimit:10;" x1="277.114" y1="260.406" x2="286.757" y2="300.108"/>
							
								<line style="fill:none;stroke:#374A67;stroke-width:3;stroke-linecap:round;stroke-linejoin:round;stroke-miterlimit:10;" x1="252.804" y1="265.108" x2="262.557" y2="305.265"/>
							
								<line style="fill:none;stroke:#374A67;stroke-width:3;stroke-linecap:round;stroke-linejoin:round;stroke-miterlimit:10;" x1="228.494" y1="269.809" x2="238.195" y2="309.75"/>
							
								<line style="fill:none;stroke:#374A67;stroke-width:3;stroke-linecap:round;stroke-linejoin:round;stroke-miterlimit:10;" x1="204.184" y1="274.51" x2="213.846" y2="314.289"/>
						</g>
					</g>
				</g>
				<g>
					<g>
						<path style="fill:#EFAD9C;" d="M311.789,181.462c0,0,27.449,22.297,43.073,100.041l-9.158,1.705
							c0,0-10.604-47.369-31.492-73.528L311.789,181.462z"/>
						<path style="fill:#79A1DF;" d="M303.385,174.927c0,0,14.609,4.485,31.085,38.548c16.404,33.912,19.185,58.385,19.185,58.385
							l-11.478,2.353c0,0-7.367-37.346-32.641-67.256L303.385,174.927z"/>
					</g>
					<path style="fill:#EFAD9C;" d="M355.322,281.317c-2.839-2.176-6.854-1.937-9.558,0.405c-3.626,3.141-8.344,7.485-7.802,8.387
						c0.868,1.446,5.979-1.054,5.979-1.054s1.122,9.037,3.512,8.595c2.389-0.443,1.622-3.45,1.622-3.45s0.622,2.417,2.066,1.874
						c1.444-0.543,1.408-2.86,1.408-2.86s0.708,1.993,2.052,1.688c1.344-0.305,0.94-2.809,0.94-2.809s0.72,2.46,1.823,2.15
						c1.753-0.493,0.361-10.479-1.28-12.248C355.873,281.768,355.614,281.541,355.322,281.317z"/>
				</g>
			</g>
		</g>
	</g>
	<g>
		<g>
			<path style="fill:#EF8A2E;" d="M170.833,433.137c-0.579-0.086-1.146-0.197-1.713-0.333c-4.979-1.146-9.54-4.018-12.72-8.024
				c-3.537-4.462-5.3-10.292-4.832-15.961c0.308-3.648,1.479-7.371,0.493-10.896c-1.541-5.497-7.654-8.431-10.23-13.509
				c-2.095-4.141-1.516-9.232,0.419-13.447c1.639-3.611,4.166-6.717,6.779-9.712c0.456-0.505,0.9-1.011,1.356-1.516
				c-0.604,1.109-0.85,2.342-0.826,3.599c0.049,2.749,1.368,5.657,3.02,7.814c2.416,3.168,5.855,5.362,9.01,7.777
				c3.155,2.428,6.237,5.324,7.395,9.133c1.997,6.557-2.194,13.2-3.932,19.832c-2.058,7.876,0.086,17.181,4.807,23.924
				C170.167,432.274,170.5,432.705,170.833,433.137z"/>
			<path style="fill:#FABF4A;" d="M170.833,433.137c-0.579-0.086-1.146-0.197-1.713-0.333c-3.759-1.898-7.087-4.573-9.392-8.196
				c-1.504-2.367-2.465-5.053-2.736-7.851c-0.32-3.328,0.345-6.656,1.035-9.885c1.22-5.781,2.687-12.399-1.257-17.49
				c-1.627-2.108-3.772-3.747-5.657-5.62c-1.923-1.923-3.451-4.104-4.178-6.754c-1.467-5.361,0.123-10.723,2.095-15.752
				c0.456-0.505,0.9-1.011,1.356-1.516c-0.604,1.109-0.85,2.342-0.826,3.599c-1.886,5.164-3.118,10.809-0.456,15.838
				c2.416,4.548,7.568,6.865,9.934,11.463c2.724,5.263,1.27,11.364,0.111,16.849c-0.703,3.303-1.344,6.73-0.813,10.107
				c0.419,2.687,1.553,5.201,3.143,7.395c2.169,2.983,5.115,5.201,8.381,6.828C170.167,432.274,170.5,432.705,170.833,433.137z"/>
		</g>
		<g>
			<path style="fill:#FABF4A;" d="M211.383,378.905c1.134,4.684,0.665,10.427-3.291,13.163c-2.995,2.083-7.482,2.071-9.454,5.14
				c-1.602,2.49-0.678,5.805,0.678,8.443c1.356,2.625,3.143,5.238,3.155,8.196c0.025,4.449-4.03,7.962-8.27,9.318
				c-4.24,1.344-8.8,1.196-13.176,2.034c-4.24,0.814-8.418,3.599-10.045,7.592c-0.062,0.111-0.111,0.222-0.148,0.345
				c-0.431-0.518-0.85-1.035-1.27-1.565c-1.886-2.317-3.661-4.745-4.782-7.506c-1.368-3.377-1.639-7.408,0.173-10.563
				c1.726-3.032,5.201-5.078,5.916-8.492c0.74-3.463-1.676-6.742-2.453-10.206c-1.072-4.782,1.417-10.144,5.768-12.424
				c3.685-1.91,8.431-1.824,11.426-4.696c2.441-2.354,2.958-6.003,4.104-9.195c3.291-9.195,13.25-15.431,22.938-14.729
				c0.814,0.049,1.627,0.148,2.441,0.308c-1.196,0.062-2.256,0.456-3.192,1.109c-2.835,1.96-4.4,6.175-4.215,9.799
				C207.932,369.784,210.249,374.221,211.383,378.905z"/>
			<path style="fill:#EF8A2E;" d="M215.093,354.069c-1.196,0.062-2.256,0.456-3.192,1.109c-0.962,0.271-1.898,0.629-2.798,1.072
				c-3.599,1.763-6.483,4.807-8.135,8.455c-1.565,3.451-1.454,7.124-1.886,10.809c-0.394,3.34-1.541,6.249-4.104,8.492
				c-2.157,1.886-4.721,3.192-7.001,4.918c-1.072,0.813-2.108,1.738-2.835,2.884c-0.961,1.504-1.257,3.217-1.134,4.979
				c0.271,3.771,2.12,7.543,0.887,11.339c-1.109,3.463-4.376,4.351-7.408,5.583c-3.389,1.38-5.546,4.215-6.52,7.703
				c-1.035,3.71-0.592,7.605,0.012,11.376c-0.062,0.111-0.111,0.222-0.148,0.345c-0.431-0.518-0.85-1.035-1.27-1.565
				c-0.542-3.735-0.777-7.555,0.419-11.167c0.616-1.874,1.578-3.648,2.921-5.09c1.306-1.405,2.921-2.28,4.684-2.958
				c1.627-0.629,3.426-1.122,4.721-2.329c1.417-1.319,1.812-3.217,1.762-5.078c-0.098-4.006-2.268-8.012-0.85-11.993
				c2.034-5.756,9.059-6.988,12.535-11.536c2.391-3.131,2.132-7.284,2.514-11.007c0.37-3.636,1.578-7.025,3.809-9.934
				c2.662-3.463,6.446-5.781,10.575-6.717C213.466,353.811,214.28,353.909,215.093,354.069z"/>
		</g>
	</g>
</g>
</svg>
